<?xml version="1.0" encoding="UTF-8" standalone="no"?>
<!-- Created with Inkscape (http://www.inkscape.org/) -->

<svg
   xmlns:dc="http://purl.org/dc/elements/1.1/"
   xmlns:cc="http://creativecommons.org/ns#"
   xmlns:rdf="http://www.w3.org/1999/02/22-rdf-syntax-ns#"
   xmlns:svg="http://www.w3.org/2000/svg"
   xmlns="http://www.w3.org/2000/svg"
   version="1.1"
   width="255.98227"
   height="32.012779"
   id="svg5221">
  <defs
     id="defs5223">
    <clipPath
       id="clipPath3060-1-8-0-5-5-4">
      <path
         d="m -217.1828,377.47707 c 60.63603,-16.27553 137.573856,47.94207 120.208156,91.92388 -8.519556,21.57733 -75.311976,28.077 -94.954336,3.03045 -21.04944,-26.84076 -49.53822,-18.45342 -53.53809,-42.4264 -3.27277,-19.61514 9.07781,-47.37266 28.28427,-52.52793 z"
         id="path3062-15-6-3-4-5-2"
         style="fill:none;stroke:#000000;stroke-width:1px;stroke-linecap:butt;stroke-linejoin:miter;stroke-opacity:1" />
    </clipPath>
  </defs>
  <metadata
     id="metadata5226">
    <rdf:RDF>
      <cc:Work
         rdf:about="">
        <dc:format>image/svg+xml</dc:format>
        <dc:type
           rdf:resource="http://purl.org/dc/dcmitype/StillImage" />
        <dc:title></dc:title>
      </cc:Work>
    </rdf:RDF>
  </metadata>
  <g
     transform="translate(-10.893572,-223.86222)"
     id="layer1">
    <path
       d="m 35.145716,229.95743 c -9.96218,-2.67399 -22.60266,7.87663 -19.74956,15.10261 1.39971,3.54504 12.37336,4.6129 15.60049,0.49788 3.45831,-4.40979 8.13887,-3.0318 8.79603,-6.97043 0.5377,-3.22266 -1.49144,-7.78308 -4.64696,-8.63006 z"
       id="path9825-3-8"
       style="fill:#000000;fill-opacity:1;stroke:none;display:inline" />
    <path
       d="m 67.276549,229.99017 c 1.93815,1.7729 1.64626,2.92669 1.23604,5.38531 -0.65716,3.93863 -4.28091,4.38986 -7.171,9.68354 -1.86481,3.41569 -9.31534,2.61919 -13.15879,1.05615 2.90918,2.6596 11.93273,3.10958 14.8125,-0.5625 3.45831,-4.4098 8.15534,-3.03012 8.8125,-6.96875 0.53042,-3.17902 -1.44881,-7.65994 -4.53125,-8.59375 z"
       id="path10248-4"
       style="color:#000000;fill:#000000;fill-opacity:1;fill-rule:nonzero;stroke:none;marker:none;visibility:visible;display:inline;overflow:visible;enable-background:accumulate" />
    <path
       d="m 95.33193,229.53983 c -9.05434,0.32689 -18.43396,9.20852 -15.9375,15.53125 0.44739,1.1331 1.88073,1.99266 3.71875,2.53125 -1.14388,-0.52252 -1.98687,-1.20652 -2.3125,-2.03125 -2.82012,-7.14246 9.46917,-17.53059 19.375,-15.1875 -0.32662,-0.18406 -0.67359,-0.3415 -1.03125,-0.4375 -1.24527,-0.33425 -2.51902,-0.45295 -3.8125,-0.40625 z"
       id="path10370-0"
       style="fill:#fafc9f;fill-opacity:1;stroke:none" />
    <path
       d="m 99.14571,229.95742 c -9.96218,-2.67399 -22.60266,7.87662 -19.74956,15.1026 1.39972,3.54504 12.37336,4.61292 15.60049,0.49789 3.45832,-4.4098 8.13887,-3.0318 8.79603,-6.97043 0.5377,-3.22266 -1.49144,-7.78308 -4.64696,-8.63006 z"
       id="path10372-9"
       style="color:#000000;fill:none;stroke:#000000;stroke-width:0.2786383;stroke-linecap:round;stroke-linejoin:round;stroke-miterlimit:4;stroke-opacity:1;stroke-dasharray:none;stroke-dashoffset:0;marker:none;visibility:visible;display:inline;overflow:visible;enable-background:accumulate" />
    <path
       d="m 114.75658,230.156 c 9.96218,-2.67399 22.60266,7.87663 19.74956,15.10261 -1.39972,3.54503 -12.37336,4.61289 -15.60049,0.49788 -3.45832,-4.40979 -8.13887,-3.0318 -8.79603,-6.97043 -0.5377,-3.22266 1.49144,-7.78308 4.64696,-8.63006 z"
       id="path3294-3-8-2"
       style="fill:#000000;fill-opacity:1;stroke:none;display:inline" />
    <path
       d="m -234.35539,389.5989 c 36.07191,8.02945 48.22354,38.89992 64.64976,76.77159 10.68075,24.62513 65.19163,16.30851 76.771596,-2.02031 15.569158,13.17391 -30.134926,63.86087 -54.548236,47.47718 -4.19389,-2.81451 -105.05587,-28.28428 -105.05587,-28.28428 l -48.48732,-74.75128 47.47717,-28.28428 z"
       transform="matrix(0.16429472,0,0,0.16429472,182.43855,168.1385)"
       clip-path="url(#clipPath3060-1-8-0-5-5-4)"
       id="path10212-5"
       style="fill:#000000;fill-opacity:1;stroke:none;display:inline" />
    <path
       d="m 178.75659,230.15599 c 9.96218,-2.67399 22.60266,7.87662 19.74956,15.1026 -1.39972,3.54504 -12.37336,4.61292 -15.60049,0.49789 -3.45831,-4.4098 -8.13887,-3.0318 -8.79603,-6.97043 -0.5377,-3.22266 1.49144,-7.78308 4.64696,-8.63006 z"
       id="path10332-1"
       style="color:#000000;fill:none;stroke:#000000;stroke-width:0.2786383;stroke-linecap:round;stroke-linejoin:round;stroke-miterlimit:4;stroke-opacity:1;stroke-dasharray:none;stroke-dashoffset:0;marker:none;visibility:visible;display:inline;overflow:visible;enable-background:accumulate" />
  </g>
</svg>
